solid OpenSCAD_Model
  facet normal -0 0 -1
    outer loop
      vertex 4.73525 -10.072 0
      vertex 4.65087 -10.0805 0
      vertex 4.81963 -10.0551 0
    endloop
  endfacet
  facet normal -0 0 -1
    outer loop
      vertex 4.65087 -10.0805 0
      vertex 4.58477 -10.0833 0
      vertex 4.91105 -10.0282 0
    endloop
  endfacet
  facet normal 0 0 -1
    outer loop
      vertex 4.65087 -10.0805 0
      vertex 4.91105 -10.0282 0
      vertex 4.81963 -10.0551 0
    endloop
  endfacet
  facet normal -0 0 -1
    outer loop
      vertex 4.91105 -10.0282 0
      vertex 4.58477 -10.0833 0
      vertex 5.01793 -9.9887 0
    endloop
  endfacet
  facet normal 0 0 -1
    outer loop
      vertex 3.82111 -9.83477 0
      vertex 3.61859 -9.67095 0
      vertex 5.14591 -9.93363 0
    endloop
  endfacet
  facet normal -0 0 -1
    outer loop
      vertex 9.84741 -7.28287 0
      vertex 9.26939 -7.93956 0
      vertex 9.92054 -7.06962 0
    endloop
  endfacet
  facet normal 0 0 -1
    outer loop
      vertex 9.46488 -7.80681 0
      vertex 9.32002 -7.91131 0
      vertex 9.26939 -7.93956 0
    endloop
  endfacet
  facet normal 0 0 -1
    outer loop
      vertex 9.63223 -7.64016 0
      vertex 9.46488 -7.80681 0
      vertex 9.26939 -7.93956 0
    endloop
  endfacet
  facet normal -0 0 -1
    outer loop
      vertex 9.76865 -7.44528 0
      vertex 9.63223 -7.64016 0
      vertex 9.84741 -7.28287 0
    endloop
  endfacet
  facet normal 0 0 -1
    outer loop
      vertex 9.84741 -7.28287 0
      vertex 9.63223 -7.64016 0
      vertex 9.26939 -7.93956 0
    endloop
  endfacet
  facet normal 0 0 -1
    outer loop
      vertex 9.92054 -7.06962 0
      vertex 9.26939 -7.93956 0
      vertex 9.06265 -8.04406 0
    endloop
  endfacet
  facet normal 0 0 -1
    outer loop
      vertex 4.91105 -4.61517 0
      vertex 9.92054 -7.06962 0
      vertex 9.06265 -8.04406 0
    endloop
  endfacet
  facet normal -0 0 -1
    outer loop
      vertex 7.66753 8.55953 0
      vertex 4.91105 4.45841 0
      vertex 7.62112 8.57647 0
    endloop
  endfacet
  facet normal 0 -0 -1
    outer loop
      vertex 7.66753 8.55953 0
      vertex 8.68575 8.06807 0
      vertex 4.91105 4.45841 0
    endloop
  endfacet
  facet normal 0 0 -1
    outer loop
      vertex 9.63645 7.47635 0
      vertex 9.2047 7.81387 0
      vertex 9.4705 7.64299 0
    endloop
  endfacet
  facet normal 0 0 -1
    outer loop
      vertex 9.4705 7.64299 0
      vertex 9.2047 7.81387 0
      vertex 9.32986 7.74608 0
    endloop
  endfacet
  facet normal -0 -0 -1
    outer loop
      vertex 9.63645 7.47635 0
      vertex 9.77006 7.28146 0
      vertex 9.2047 7.81387 0
    endloop
  endfacet
  facet normal 0 0 -1
    outer loop
      vertex 9.2047 7.81387 0
      vertex 9.77006 7.28146 0
      vertex 9.84882 7.12046 0
    endloop
  endfacet
  facet normal 0 0 -1
    outer loop
      vertex 9.92054 6.90863 0
      vertex 9.2047 7.81387 0
      vertex 9.84882 7.12046 0
    endloop
  endfacet
  facet normal 0 0 -1
    outer loop
      vertex 9.92054 6.90863 0
      vertex 8.68575 8.06807 0
      vertex 9.2047 7.81387 0
    endloop
  endfacet
  facet normal -0 0 -1
    outer loop
      vertex 4.84776 4.40757 0
      vertex -4.0391 2.49541 0
      vertex 3.68469 9.57351 0
    endloop
  endfacet
  facet normal 0 0 -1
    outer loop
      vertex 7.62112 8.57647 0
      vertex 7.63941 8.57647 0
      vertex 7.66753 8.55953 0
    endloop
  endfacet
  facet normal -0 0 -1
    outer loop
      vertex 7.593 8.59342 0
      vertex 4.91105 4.45841 0
      vertex 5.01652 9.83477 0
    endloop
  endfacet
  facet normal 0 0 -1
    outer loop
      vertex 5.01652 9.83477 0
      vertex 4.91105 4.45841 0
      vertex 3.68469 9.57351 0
    endloop
  endfacet
  facet normal 0 -0 -1
    outer loop
      vertex 4.68462 9.91244 0
      vertex 5.01652 9.83477 0
      vertex 3.68469 9.57351 0
    endloop
  endfacet
  facet normal 0 -0 -1
    outer loop
      vertex 4.4821 9.91668 0
      vertex 4.68462 9.91244 0
      vertex 3.9519 9.76557 0
    endloop
  endfacet
  facet normal 0 0 -1
    outer loop
      vertex 5.01652 9.83477 0
      vertex 4.68462 9.91244 0
      vertex 4.88011 9.87855 0
    endloop
  endfacet
  facet normal 0 -0 -1
    outer loop
      vertex 4.32881 9.90114 0
      vertex 4.4821 9.91668 0
      vertex 3.9519 9.76557 0
    endloop
  endfacet
  facet normal 0 -0 -1
    outer loop
      vertex 4.22474 9.88137 0
      vertex 4.32881 9.90114 0
      vertex 3.9519 9.76557 0
    endloop
  endfacet
  facet normal 0 -0 -1
    outer loop
      vertex 3.9519 9.76557 0
      vertex 4.68462 9.91244 0
      vertex 3.68469 9.57351 0
    endloop
  endfacet
  facet normal -0 0 -1
    outer loop
      vertex 7.62112 8.57647 0
      vertex 4.91105 4.45841 0
      vertex 7.593 8.59342 0
    endloop
  endfacet
  facet normal 0 -0 -1
    outer loop
      vertex 8.68575 8.06807 0
      vertex 9.92054 6.90863 0
      vertex 4.91105 4.45841 0
    endloop
  endfacet
  facet normal 0 0 -1
    outer loop
      vertex -4.18536 -2.5406 0
      vertex -1.01962 -0.0847338 0
      vertex -4.13754 -2.57591 0
    endloop
  endfacet
  facet normal 0 0 -1
    outer loop
      vertex -4.23177 2.35842 0
      vertex -1.01962 -0.0847338 0
      vertex -4.2163 -2.52507 0
    endloop
  endfacet
  facet normal 0 0 -1
    outer loop
      vertex -6.8645 -0.0833216 0
      vertex -4.23177 2.35842 0
      vertex -4.23599 -2.52365 0
    endloop
  endfacet
  facet normal 0 0 -1
    outer loop
      vertex -6.8645 -0.0833216 0
      vertex -4.31615 2.41774 0
      vertex -4.23177 2.35842 0
    endloop
  endfacet
  facet normal 0 0 -1
    outer loop
      vertex -9.95992 2.79904 0
      vertex -10.0063 2.87954 0
      vertex -9.93742 2.76797 0
    endloop
  endfacet
  facet normal 0 -0 -1
    outer loop
      vertex -8.07257 5.11086 0
      vertex -7.64222 4.93857 0
      vertex -8.26524 5.10804 0
    endloop
  endfacet
  facet normal -0 -0 -1
    outer loop
      vertex -7.80114 5.04307 0
      vertex -7.76317 5.02048 0
      vertex -7.85317 5.06567 0
    endloop
  endfacet
  facet normal -0 -0 -1
    outer loop
      vertex -7.85317 5.06567 0
      vertex -7.76317 5.02048 0
      vertex -7.92349 5.08826 0
    endloop
  endfacet
  facet normal -0 -0 -1
    outer loop
      vertex -7.92349 5.08826 0
      vertex -7.76317 5.02048 0
      vertex -8.07257 5.11086 0
    endloop
  endfacet
  facet normal 0 0 -1
    outer loop
      vertex -8.07257 5.11086 0
      vertex -7.76317 5.02048 0
      vertex -7.64222 4.93857 0
    endloop
  endfacet
  facet normal 0 0 -1
    outer loop
      vertex -8.62246 4.97387 0
      vertex -8.56902 5.01059 0
      vertex -8.44666 5.06567 0
    endloop
  endfacet
  facet normal 0 0 -1
    outer loop
      vertex -8.26524 5.10804 0
      vertex -8.62246 4.97387 0
      vertex -8.44666 5.06567 0
    endloop
  endfacet
  facet normal 0 -0 -1
    outer loop
      vertex -8.26524 5.10804 0
      vertex -7.64222 4.93857 0
      vertex -8.62246 4.97387 0
    endloop
  endfacet
  facet normal 0 -0 -1
    outer loop
      vertex -8.62246 4.97387 0
      vertex -7.64222 4.93857 0
      vertex -8.95999 4.67872 0
    endloop
  endfacet
  facet normal 0 0 -1
    outer loop
      vertex -8.95999 4.67872 0
      vertex -7.64222 4.93857 0
      vertex -7.28922 4.67872 0
    endloop
  endfacet
  facet normal 0 0 -1
    outer loop
      vertex -9.34252 4.33272 0
      vertex -8.95999 4.67872 0
      vertex -7.28922 4.67872 0
    endloop
  endfacet
  facet normal 0 0 -1
    outer loop
      vertex -10.0795 3.39783 0
      vertex -10.071 3.47832 0
      vertex -10.0499 3.5447 0
    endloop
  endfacet
  facet normal 0 0 -1
    outer loop
      vertex -10.0007 3.65061 0
      vertex -10.0795 3.39783 0
      vertex -10.0499 3.5447 0
    endloop
  endfacet
  facet normal 0 0 -1
    outer loop
      vertex -10.0007 3.65061 0
      vertex -10.0795 3.23683 0
      vertex -10.0795 3.39783 0
    endloop
  endfacet
  facet normal 0 -0 -1
    outer loop
      vertex -10.0007 3.65061 0
      vertex -9.92617 3.765 0
      vertex -10.0795 3.23683 0
    endloop
  endfacet
  facet normal 0 0 -1
    outer loop
      vertex -10.0795 3.23683 0
      vertex -9.92617 3.765 0
      vertex -9.82913 3.87657 0
    endloop
  endfacet
  facet normal 0 0 -1
    outer loop
      vertex -9.93742 2.76797 0
      vertex -10.0063 2.87954 0
      vertex -10.0485 2.99252 0
    endloop
  endfacet
  facet normal 0 0 -1
    outer loop
      vertex -9.93742 2.76797 0
      vertex -10.0485 2.99252 0
      vertex -9.8235 2.65217 0
    endloop
  endfacet
  facet normal 0 0 -1
    outer loop
      vertex -9.8235 2.65217 0
      vertex -10.0485 2.99252 0
      vertex -10.0724 3.12103 0
    endloop
  endfacet
  facet normal 0 0 -1
    outer loop
      vertex -10.0795 3.23683 0
      vertex -9.8235 2.65217 0
      vertex -10.0724 3.12103 0
    endloop
  endfacet
  facet normal 0 0 -1
    outer loop
      vertex -10.0795 3.23683 0
      vertex -9.82913 3.87657 0
      vertex -9.8235 2.65217 0
    endloop
  endfacet
  facet normal 0 0 -1
    outer loop
      vertex -9.8235 2.65217 0
      vertex -9.82913 3.87657 0
      vertex -9.68849 4.01215 0
    endloop
  endfacet
  facet normal 0 0 -1
    outer loop
      vertex -9.35377 2.21155 0
      vertex -9.8235 2.65217 0
      vertex -9.68849 4.01215 0
    endloop
  endfacet
  facet normal 0 0 -1
    outer loop
      vertex -9.34252 4.33272 0
      vertex -9.35377 2.21155 0
      vertex -9.68849 4.01215 0
    endloop
  endfacet
  facet normal 0 -0 -1
    outer loop
      vertex -9.34252 4.33272 0
      vertex -7.28922 4.67872 0
      vertex -9.35377 2.21155 0
    endloop
  endfacet
  facet normal 0 0 -1
    outer loop
      vertex -9.35377 2.21155 0
      vertex -7.28922 4.67872 0
      vertex -6.93622 -0.00706115 0
    endloop
  endfacet
  facet normal 0 0 -1
    outer loop
      vertex -6.93622 -0.00706115 0
      vertex -7.28922 4.67872 0
      vertex -4.31615 2.41774 0
    endloop
  endfacet
  facet normal 0 0 -1
    outer loop
      vertex -6.8645 -0.0833216 0
      vertex -6.93622 -0.00706115 0
      vertex -4.31615 2.41774 0
    endloop
  endfacet
  facet normal 0 0 -1
    outer loop
      vertex -4.25005 -2.5293 0
      vertex -6.8645 -0.0833216 0
      vertex -4.23599 -2.52365 0
    endloop
  endfacet
  facet normal 0 0 -1
    outer loop
      vertex -8.62246 -5.13346 0
      vertex -8.79685 -4.98376 0
      vertex -7.65206 -5.10239 0
    endloop
  endfacet
  facet normal 0 0 -1
    outer loop
      vertex -8.23149 -5.27327 0
      vertex -7.78848 -5.18853 0
      vertex -8.13445 -5.27892 0
    endloop
  endfacet
  facet normal 0 0 -1
    outer loop
      vertex -10.0795 -3.55882 0
      vertex -10.0499 -3.70569 0
      vertex -10.071 -3.63932 0
    endloop
  endfacet
  facet normal 0 -0 -1
    outer loop
      vertex -10.0063 -3.04053 0
      vertex -9.95992 -2.96003 0
      vertex -10.0485 -3.15351 0
    endloop
  endfacet
  facet normal 0 0 -1
    outer loop
      vertex -9.77709 -2.76656 0
      vertex -9.95992 -2.96003 0
      vertex -9.94304 -2.93461 0
    endloop
  endfacet
  facet normal 0 -0 -1
    outer loop
      vertex -10.0485 -3.15351 0
      vertex -9.95992 -2.96003 0
      vertex -10.0724 -3.28202 0
    endloop
  endfacet
  facet normal 0 0 -1
    outer loop
      vertex -10.0724 -3.28202 0
      vertex -9.95992 -2.96003 0
      vertex -9.77709 -2.76656 0
    endloop
  endfacet
  facet normal 0 0 -1
    outer loop
      vertex -10.0795 -3.39783 0
      vertex -10.0724 -3.28202 0
      vertex -9.77709 -2.76656 0
    endloop
  endfacet
  facet normal 0 0 -1
    outer loop
      vertex -10.0795 -3.55882 0
      vertex -10.0007 -3.81161 0
      vertex -10.0499 -3.70569 0
    endloop
  endfacet
  facet normal 0 0 -1
    outer loop
      vertex -10.0795 -3.39783 0
      vertex -10.0007 -3.81161 0
      vertex -10.0795 -3.55882 0
    endloop
  endfacet
  facet normal 0 0 -1
    outer loop
      vertex -10.0795 -3.39783 0
      vertex -9.92617 -3.926 0
      vertex -10.0007 -3.81161 0
    endloop
  endfacet
  facet normal 0 0 -1
    outer loop
      vertex -10.0795 -3.39783 0
      vertex -9.82913 -4.03757 0
      vertex -9.92617 -3.926 0
    endloop
  endfacet
  facet normal 0 0 -1
    outer loop
      vertex -10.0795 -3.39783 0
      vertex -9.77709 -2.76656 0
      vertex -9.82913 -4.03757 0
    endloop
  endfacet
  facet normal 0 0 -1
    outer loop
      vertex -9.82913 -4.03757 0
      vertex -9.77709 -2.76656 0
      vertex -9.7785 -4.08841 0
    endloop
  endfacet
  facet normal 0 0 -1
    outer loop
      vertex -9.7785 -4.08841 0
      vertex -9.77709 -2.76656 0
      vertex -9.53098 -4.32001 0
    endloop
  endfacet
  facet normal 0 0 -1
    outer loop
      vertex -9.53098 -4.32001 0
      vertex -9.77709 -2.76656 0
      vertex -9.48878 -2.49541 0
    endloop
  endfacet
  facet normal 0 0 -1
    outer loop
      vertex -9.14985 -4.66883 0
      vertex -9.53098 -4.32001 0
      vertex -9.48878 -2.49541 0
    endloop
  endfacet
  facet normal 0 0 -1
    outer loop
      vertex -8.13445 -5.27892 0
      vertex -7.78848 -5.18853 0
      vertex -8.01209 -5.26903 0
    endloop
  endfacet
  facet normal 0 0 -1
    outer loop
      vertex -8.62246 -5.13346 0
      vertex -8.49589 -5.20548 0
      vertex -8.57886 -5.16452 0
    endloop
  endfacet
  facet normal 0 0 -1
    outer loop
      vertex -8.62246 -5.13346 0
      vertex -8.3665 -5.24926 0
      vertex -8.49589 -5.20548 0
    endloop
  endfacet
  facet normal 0 0 -1
    outer loop
      vertex -7.78848 -5.18853 0
      vertex -7.84192 -5.21678 0
      vertex -8.01209 -5.26903 0
    endloop
  endfacet
  facet normal 0 0 -1
    outer loop
      vertex -8.01209 -5.26903 0
      vertex -7.84192 -5.21678 0
      vertex -7.88833 -5.23796 0
    endloop
  endfacet
  facet normal 0 0 -1
    outer loop
      vertex 3.68469 9.57351 0
      vertex 4.91105 4.45841 0
      vertex 4.84776 4.40757 0
    endloop
  endfacet
  facet normal -0 0 -1
    outer loop
      vertex 5.01793 -9.9887 0
      vertex 4.58477 -10.0833 0
      vertex 3.82111 -9.83477 0
    endloop
  endfacet
  facet normal -0 0 -1
    outer loop
      vertex -7.93053 -5.2535 0
      vertex -8.01209 -5.26903 0
      vertex -7.88833 -5.23796 0
    endloop
  endfacet
  facet normal 0 0 -1
    outer loop
      vertex -8.3665 -5.24926 0
      vertex -7.78848 -5.18853 0
      vertex -8.23149 -5.27327 0
    endloop
  endfacet
  facet normal 0 0 -1
    outer loop
      vertex -8.3665 -5.24926 0
      vertex -7.65206 -5.10239 0
      vertex -7.78848 -5.18853 0
    endloop
  endfacet
  facet normal 0 0 -1
    outer loop
      vertex -8.3665 -5.24926 0
      vertex -8.62246 -5.13346 0
      vertex -7.65206 -5.10239 0
    endloop
  endfacet
  facet normal 0 0 -1
    outer loop
      vertex -7.65206 -5.10239 0
      vertex -8.79685 -4.98376 0
      vertex -7.4622 -4.96681 0
    endloop
  endfacet
  facet normal -0 0 -1
    outer loop
      vertex -7.4622 -4.96681 0
      vertex -8.79685 -4.98376 0
      vertex -9.14985 -4.66883 0
    endloop
  endfacet
  facet normal 0 0 -1
    outer loop
      vertex -9.48878 -2.49541 0
      vertex -7.4622 -4.96681 0
      vertex -9.14985 -4.66883 0
    endloop
  endfacet
  facet normal 0 0 -1
    outer loop
      vertex -9.48878 -2.49541 0
      vertex -7.60987 -0.773902 0
      vertex -7.4622 -4.96681 0
    endloop
  endfacet
  facet normal 0 0 -1
    outer loop
      vertex -7.4622 -4.96681 0
      vertex -7.60987 -0.773902 0
      vertex -4.25005 -2.5293 0
    endloop
  endfacet
  facet normal 0 0 -1
    outer loop
      vertex -4.25005 -2.5293 0
      vertex -7.60987 -0.773902 0
      vertex -6.8645 -0.0833216 0
    endloop
  endfacet
  facet normal 0 0 -1
    outer loop
      vertex -4.23599 -2.52365 0
      vertex -4.23177 2.35842 0
      vertex -4.2163 -2.52507 0
    endloop
  endfacet
  facet normal 0 0 -1
    outer loop
      vertex 5.14591 -9.93363 0
      vertex 4.91105 -4.61517 0
      vertex 9.06265 -8.04406 0
    endloop
  endfacet
  facet normal 0 0 -1
    outer loop
      vertex -4.18536 -2.5406 0
      vertex -4.2163 -2.52507 0
      vertex -1.01962 -0.0847338 0
    endloop
  endfacet
  facet normal 0 0 -1
    outer loop
      vertex -4.06582 -2.63522 0
      vertex -4.13754 -2.57591 0
      vertex -1.01962 -0.0847338 0
    endloop
  endfacet
  facet normal 0 0 -1
    outer loop
      vertex -3.64813 -3.0137 0
      vertex -4.06582 -2.63522 0
      vertex -1.01962 -0.0847338 0
    endloop
  endfacet
  facet normal 0 -0 -1
    outer loop
      vertex -1.01962 -0.0847338 0
      vertex -0.881795 -0.200537 0
      vertex -3.64813 -3.0137 0
    endloop
  endfacet
  facet normal 0 0 -1
    outer loop
      vertex -1.01962 -0.0847338 0
      vertex -4.23177 2.35842 0
      vertex -4.20646 2.36549 0
    endloop
  endfacet
  facet normal 0 0 -1
    outer loop
      vertex 4.91105 4.45841 0
      vertex 9.92054 6.90863 0
      vertex 4.91105 -4.61517 0
    endloop
  endfacet
  facet normal 0 0 -1
    outer loop
      vertex 5.01793 -9.9887 0
      vertex 3.82111 -9.83477 0
      vertex 5.14591 -9.93363 0
    endloop
  endfacet
  facet normal 0 0 -1
    outer loop
      vertex 3.82111 -9.83477 0
      vertex 4.58477 -10.0833 0
      vertex 4.0616 -9.98023 0
    endloop
  endfacet
  facet normal 0 0 -1
    outer loop
      vertex 4.0616 -9.98023 0
      vertex 4.49757 -10.0833 0
      vertex 4.30068 -10.0593 0
    endloop
  endfacet
  facet normal 0 0 -1
    outer loop
      vertex 4.0616 -9.98023 0
      vertex 4.58477 -10.0833 0
      vertex 4.49757 -10.0833 0
    endloop
  endfacet
  facet normal 0 0 -1
    outer loop
      vertex -4.0391 2.49541 0
      vertex 4.84776 4.40757 0
      vertex -0.870544 0.0508403 0
    endloop
  endfacet
  facet normal -0 0 -1
    outer loop
      vertex 4.91105 -4.61517 0
      vertex 3.61859 -9.67095 0
      vertex -3.64813 -3.0137 0
    endloop
  endfacet
  facet normal 0 0 -1
    outer loop
      vertex 3.61859 -9.67095 0
      vertex 4.91105 -4.61517 0
      vertex 5.14591 -9.93363 0
    endloop
  endfacet
  facet normal 0 0 -1
    outer loop
      vertex 4.91105 -4.61517 0
      vertex 9.92054 6.90863 0
      vertex 9.92054 -7.06962 0
    endloop
  endfacet
  facet normal 0 -0 -1
    outer loop
      vertex -0.881795 -0.200537 0
      vertex 4.91105 -4.61517 0
      vertex -3.64813 -3.0137 0
    endloop
  endfacet
  facet normal 0 0 -1
    outer loop
      vertex -1.01962 -0.0748482 0
      vertex -4.20646 2.36549 0
      vertex -4.14457 2.40644 0
    endloop
  endfacet
  facet normal 0 0 -1
    outer loop
      vertex -1.01962 -0.0847338 0
      vertex -4.20646 2.36549 0
      vertex -1.01962 -0.0748482 0
    endloop
  endfacet
  facet normal 0 -0 -1
    outer loop
      vertex -4.0391 2.49541 0
      vertex -1.01962 -0.0748482 0
      vertex -4.14457 2.40644 0
    endloop
  endfacet
  facet normal 0 0 -1
    outer loop
      vertex -4.0391 2.49541 0
      vertex -0.870544 0.0508403 0
      vertex -1.01962 -0.0748482 0
    endloop
  endfacet
  facet normal 0 0 1
    outer loop
      vertex 4.81963 -10.0551 1
      vertex 4.65087 -10.0805 1
      vertex 4.73525 -10.072 1
    endloop
  endfacet
  facet normal 0 0 1
    outer loop
      vertex 4.91105 -10.0282 1
      vertex 4.58477 -10.0833 1
      vertex 4.65087 -10.0805 1
    endloop
  endfacet
  facet normal 0 -0 1
    outer loop
      vertex 4.81963 -10.0551 1
      vertex 4.91105 -10.0282 1
      vertex 4.65087 -10.0805 1
    endloop
  endfacet
  facet normal 0 0 1
    outer loop
      vertex 5.01793 -9.9887 1
      vertex 4.58477 -10.0833 1
      vertex 4.91105 -10.0282 1
    endloop
  endfacet
  facet normal 0 0 1
    outer loop
      vertex 5.14591 -9.93363 1
      vertex 3.61859 -9.67095 1
      vertex 3.82111 -9.83477 1
    endloop
  endfacet
  facet normal 0 0 1
    outer loop
      vertex 9.92054 -7.06962 1
      vertex 9.26939 -7.93956 1
      vertex 9.84741 -7.28287 1
    endloop
  endfacet
  facet normal 0 0 1
    outer loop
      vertex 9.26939 -7.93956 1
      vertex 9.32002 -7.91131 1
      vertex 9.46488 -7.80681 1
    endloop
  endfacet
  facet normal 0 0 1
    outer loop
      vertex 9.26939 -7.93956 1
      vertex 9.46488 -7.80681 1
      vertex 9.63223 -7.64016 1
    endloop
  endfacet
  facet normal 0 0 1
    outer loop
      vertex 9.84741 -7.28287 1
      vertex 9.63223 -7.64016 1
      vertex 9.76865 -7.44528 1
    endloop
  endfacet
  facet normal 0 0 1
    outer loop
      vertex 9.26939 -7.93956 1
      vertex 9.63223 -7.64016 1
      vertex 9.84741 -7.28287 1
    endloop
  endfacet
  facet normal 0 0 1
    outer loop
      vertex 9.06265 -8.04406 1
      vertex 9.26939 -7.93956 1
      vertex 9.92054 -7.06962 1
    endloop
  endfacet
  facet normal 0 -0 1
    outer loop
      vertex 9.06265 -8.04406 1
      vertex 9.92054 -7.06962 1
      vertex 4.91105 -4.61517 1
    endloop
  endfacet
  facet normal 0 0 1
    outer loop
      vertex 7.62112 8.57647 1
      vertex 4.91105 4.45841 1
      vertex 7.66753 8.55953 1
    endloop
  endfacet
  facet normal 0 0 1
    outer loop
      vertex 4.91105 4.45841 1
      vertex 8.68575 8.06807 1
      vertex 7.66753 8.55953 1
    endloop
  endfacet
  facet normal 0 0 1
    outer loop
      vertex 9.4705 7.64299 1
      vertex 9.2047 7.81387 1
      vertex 9.63645 7.47635 1
    endloop
  endfacet
  facet normal 0 0 1
    outer loop
      vertex 9.32986 7.74608 1
      vertex 9.2047 7.81387 1
      vertex 9.4705 7.64299 1
    endloop
  endfacet
  facet normal 0 0 1
    outer loop
      vertex 9.2047 7.81387 1
      vertex 9.77006 7.28146 1
      vertex 9.63645 7.47635 1
    endloop
  endfacet
  facet normal 0 0 1
    outer loop
      vertex 9.84882 7.12046 1
      vertex 9.77006 7.28146 1
      vertex 9.2047 7.81387 1
    endloop
  endfacet
  facet normal 0 0 1
    outer loop
      vertex 9.84882 7.12046 1
      vertex 9.2047 7.81387 1
      vertex 9.92054 6.90863 1
    endloop
  endfacet
  facet normal 0 0 1
    outer loop
      vertex 9.2047 7.81387 1
      vertex 8.68575 8.06807 1
      vertex 9.92054 6.90863 1
    endloop
  endfacet
  facet normal 0 0 1
    outer loop
      vertex 3.68469 9.57351 1
      vertex -4.0391 2.49541 1
      vertex 4.84776 4.40757 1
    endloop
  endfacet
  facet normal 0 0 1
    outer loop
      vertex 7.66753 8.55953 1
      vertex 7.63941 8.57647 1
      vertex 7.62112 8.57647 1
    endloop
  endfacet
  facet normal 0 0 1
    outer loop
      vertex 5.01652 9.83477 1
      vertex 4.91105 4.45841 1
      vertex 7.593 8.59342 1
    endloop
  endfacet
  facet normal -0 0 1
    outer loop
      vertex 3.68469 9.57351 1
      vertex 4.91105 4.45841 1
      vertex 5.01652 9.83477 1
    endloop
  endfacet
  facet normal 0 0 1
    outer loop
      vertex 3.68469 9.57351 1
      vertex 5.01652 9.83477 1
      vertex 4.68462 9.91244 1
    endloop
  endfacet
  facet normal 0 0 1
    outer loop
      vertex 3.9519 9.76557 1
      vertex 4.68462 9.91244 1
      vertex 4.4821 9.91668 1
    endloop
  endfacet
  facet normal 0 0 1
    outer loop
      vertex 4.88011 9.87855 1
      vertex 4.68462 9.91244 1
      vertex 5.01652 9.83477 1
    endloop
  endfacet
  facet normal 0 0 1
    outer loop
      vertex 3.9519 9.76557 1
      vertex 4.4821 9.91668 1
      vertex 4.32881 9.90114 1
    endloop
  endfacet
  facet normal 0 0 1
    outer loop
      vertex 3.9519 9.76557 1
      vertex 4.32881 9.90114 1
      vertex 4.22474 9.88137 1
    endloop
  endfacet
  facet normal 0 0 1
    outer loop
      vertex 3.68469 9.57351 1
      vertex 4.68462 9.91244 1
      vertex 3.9519 9.76557 1
    endloop
  endfacet
  facet normal 0 0 1
    outer loop
      vertex 7.593 8.59342 1
      vertex 4.91105 4.45841 1
      vertex 7.62112 8.57647 1
    endloop
  endfacet
  facet normal 0 0 1
    outer loop
      vertex 4.91105 4.45841 1
      vertex 9.92054 6.90863 1
      vertex 8.68575 8.06807 1
    endloop
  endfacet
  facet normal 0 -0 1
    outer loop
      vertex -4.13754 -2.57591 1
      vertex -1.01962 -0.0847338 1
      vertex -4.18536 -2.5406 1
    endloop
  endfacet
  facet normal 0 -0 1
    outer loop
      vertex -4.2163 -2.52507 1
      vertex -1.01962 -0.0847338 1
      vertex -4.23177 2.35842 1
    endloop
  endfacet
  facet normal 0 -0 1
    outer loop
      vertex -4.23599 -2.52365 1
      vertex -4.23177 2.35842 1
      vertex -6.8645 -0.0833216 1
    endloop
  endfacet
  facet normal 0 0 1
    outer loop
      vertex -4.23177 2.35842 1
      vertex -4.31615 2.41774 1
      vertex -6.8645 -0.0833216 1
    endloop
  endfacet
  facet normal 0 0 1
    outer loop
      vertex -9.93742 2.76797 1
      vertex -10.0063 2.87954 1
      vertex -9.95992 2.79904 1
    endloop
  endfacet
  facet normal -0 0 1
    outer loop
      vertex -8.26524 5.10804 1
      vertex -7.64222 4.93857 1
      vertex -8.07257 5.11086 1
    endloop
  endfacet
  facet normal 0 0 1
    outer loop
      vertex -7.85317 5.06567 1
      vertex -7.76317 5.02048 1
      vertex -7.80114 5.04307 1
    endloop
  endfacet
  facet normal 0 0 1
    outer loop
      vertex -7.92349 5.08826 1
      vertex -7.76317 5.02048 1
      vertex -7.85317 5.06567 1
    endloop
  endfacet
  facet normal 0 0 1
    outer loop
      vertex -8.07257 5.11086 1
      vertex -7.76317 5.02048 1
      vertex -7.92349 5.08826 1
    endloop
  endfacet
  facet normal 0 0 1
    outer loop
      vertex -7.64222 4.93857 1
      vertex -7.76317 5.02048 1
      vertex -8.07257 5.11086 1
    endloop
  endfacet
  facet normal 0 0 1
    outer loop
      vertex -8.44666 5.06567 1
      vertex -8.56902 5.01059 1
      vertex -8.62246 4.97387 1
    endloop
  endfacet
  facet normal -0 0 1
    outer loop
      vertex -8.44666 5.06567 1
      vertex -8.62246 4.97387 1
      vertex -8.26524 5.10804 1
    endloop
  endfacet
  facet normal -0 0 1
    outer loop
      vertex -8.62246 4.97387 1
      vertex -7.64222 4.93857 1
      vertex -8.26524 5.10804 1
    endloop
  endfacet
  facet normal 0 0 1
    outer loop
      vertex -8.95999 4.67872 1
      vertex -7.64222 4.93857 1
      vertex -8.62246 4.97387 1
    endloop
  endfacet
  facet normal 0 0 1
    outer loop
      vertex -7.28922 4.67872 1
      vertex -7.64222 4.93857 1
      vertex -8.95999 4.67872 1
    endloop
  endfacet
  facet normal 0 0 1
    outer loop
      vertex -7.28922 4.67872 1
      vertex -8.95999 4.67872 1
      vertex -9.34252 4.33272 1
    endloop
  endfacet
  facet normal 0 0 1
    outer loop
      vertex -10.0499 3.5447 1
      vertex -10.071 3.47832 1
      vertex -10.0795 3.39783 1
    endloop
  endfacet
  facet normal -0 0 1
    outer loop
      vertex -10.0499 3.5447 1
      vertex -10.0795 3.39783 1
      vertex -10.0007 3.65061 1
    endloop
  endfacet
  facet normal -0 0 1
    outer loop
      vertex -10.0795 3.39783 1
      vertex -10.0795 3.23683 1
      vertex -10.0007 3.65061 1
    endloop
  endfacet
  facet normal 0 0 1
    outer loop
      vertex -10.0795 3.23683 1
      vertex -9.92617 3.765 1
      vertex -10.0007 3.65061 1
    endloop
  endfacet
  facet normal 0 0 1
    outer loop
      vertex -9.82913 3.87657 1
      vertex -9.92617 3.765 1
      vertex -10.0795 3.23683 1
    endloop
  endfacet
  facet normal 0 0 1
    outer loop
      vertex -10.0485 2.99252 1
      vertex -10.0063 2.87954 1
      vertex -9.93742 2.76797 1
    endloop
  endfacet
  facet normal 0 0 1
    outer loop
      vertex -9.8235 2.65217 1
      vertex -10.0485 2.99252 1
      vertex -9.93742 2.76797 1
    endloop
  endfacet
  facet normal 0 0 1
    outer loop
      vertex -10.0724 3.12103 1
      vertex -10.0485 2.99252 1
      vertex -9.8235 2.65217 1
    endloop
  endfacet
  facet normal -0 -0 1
    outer loop
      vertex -10.0724 3.12103 1
      vertex -9.8235 2.65217 1
      vertex -10.0795 3.23683 1
    endloop
  endfacet
  facet normal 0 0 1
    outer loop
      vertex -9.8235 2.65217 1
      vertex -9.82913 3.87657 1
      vertex -10.0795 3.23683 1
    endloop
  endfacet
  facet normal 0 0 1
    outer loop
      vertex -9.68849 4.01215 1
      vertex -9.82913 3.87657 1
      vertex -9.8235 2.65217 1
    endloop
  endfacet
  facet normal 0 0 1
    outer loop
      vertex -9.68849 4.01215 1
      vertex -9.8235 2.65217 1
      vertex -9.35377 2.21155 1
    endloop
  endfacet
  facet normal -0 0 1
    outer loop
      vertex -9.68849 4.01215 1
      vertex -9.35377 2.21155 1
      vertex -9.34252 4.33272 1
    endloop
  endfacet
  facet normal 0 0 1
    outer loop
      vertex -9.35377 2.21155 1
      vertex -7.28922 4.67872 1
      vertex -9.34252 4.33272 1
    endloop
  endfacet
  facet normal 0 0 1
    outer loop
      vertex -6.93622 -0.00706115 1
      vertex -7.28922 4.67872 1
      vertex -9.35377 2.21155 1
    endloop
  endfacet
  facet normal 0 0 1
    outer loop
      vertex -4.31615 2.41774 1
      vertex -7.28922 4.67872 1
      vertex -6.93622 -0.00706115 1
    endloop
  endfacet
  facet normal 0 0 1
    outer loop
      vertex -4.31615 2.41774 1
      vertex -6.93622 -0.00706115 1
      vertex -6.8645 -0.0833216 1
    endloop
  endfacet
  facet normal 0 0 1
    outer loop
      vertex -4.23599 -2.52365 1
      vertex -6.8645 -0.0833216 1
      vertex -4.25005 -2.5293 1
    endloop
  endfacet
  facet normal 0 0 1
    outer loop
      vertex -7.65206 -5.10239 1
      vertex -8.79685 -4.98376 1
      vertex -8.62246 -5.13346 1
    endloop
  endfacet
  facet normal 0 -0 1
    outer loop
      vertex -8.13445 -5.27892 1
      vertex -7.78848 -5.18853 1
      vertex -8.23149 -5.27327 1
    endloop
  endfacet
  facet normal -0 -0 1
    outer loop
      vertex -10.071 -3.63932 1
      vertex -10.0499 -3.70569 1
      vertex -10.0795 -3.55882 1
    endloop
  endfacet
  facet normal 0 0 1
    outer loop
      vertex -10.0485 -3.15351 1
      vertex -9.95992 -2.96003 1
      vertex -10.0063 -3.04053 1
    endloop
  endfacet
  facet normal -0 0 1
    outer loop
      vertex -9.94304 -2.93461 1
      vertex -9.95992 -2.96003 1
      vertex -9.77709 -2.76656 1
    endloop
  endfacet
  facet normal 0 0 1
    outer loop
      vertex -10.0724 -3.28202 1
      vertex -9.95992 -2.96003 1
      vertex -10.0485 -3.15351 1
    endloop
  endfacet
  facet normal 0 0 1
    outer loop
      vertex -9.77709 -2.76656 1
      vertex -9.95992 -2.96003 1
      vertex -10.0724 -3.28202 1
    endloop
  endfacet
  facet normal 0 0 1
    outer loop
      vertex -9.77709 -2.76656 1
      vertex -10.0724 -3.28202 1
      vertex -10.0795 -3.39783 1
    endloop
  endfacet
  facet normal -0 -0 1
    outer loop
      vertex -10.0499 -3.70569 1
      vertex -10.0007 -3.81161 1
      vertex -10.0795 -3.55882 1
    endloop
  endfacet
  facet normal -0 0 1
    outer loop
      vertex -10.0795 -3.55882 1
      vertex -10.0007 -3.81161 1
      vertex -10.0795 -3.39783 1
    endloop
  endfacet
  facet normal -0 -0 1
    outer loop
      vertex -10.0007 -3.81161 1
      vertex -9.92617 -3.926 1
      vertex -10.0795 -3.39783 1
    endloop
  endfacet
  facet normal -0 -0 1
    outer loop
      vertex -9.92617 -3.926 1
      vertex -9.82913 -4.03757 1
      vertex -10.0795 -3.39783 1
    endloop
  endfacet
  facet normal 0 -0 1
    outer loop
      vertex -9.82913 -4.03757 1
      vertex -9.77709 -2.76656 1
      vertex -10.0795 -3.39783 1
    endloop
  endfacet
  facet normal 0 -0 1
    outer loop
      vertex -9.7785 -4.08841 1
      vertex -9.77709 -2.76656 1
      vertex -9.82913 -4.03757 1
    endloop
  endfacet
  facet normal 0 0 1
    outer loop
      vertex -9.53098 -4.32001 1
      vertex -9.77709 -2.76656 1
      vertex -9.7785 -4.08841 1
    endloop
  endfacet
  facet normal 0 0 1
    outer loop
      vertex -9.48878 -2.49541 1
      vertex -9.77709 -2.76656 1
      vertex -9.53098 -4.32001 1
    endloop
  endfacet
  facet normal 0 0 1
    outer loop
      vertex -9.48878 -2.49541 1
      vertex -9.53098 -4.32001 1
      vertex -9.14985 -4.66883 1
    endloop
  endfacet
  facet normal 0 -0 1
    outer loop
      vertex -8.01209 -5.26903 1
      vertex -7.78848 -5.18853 1
      vertex -8.13445 -5.27892 1
    endloop
  endfacet
  facet normal -0 -0 1
    outer loop
      vertex -8.57886 -5.16452 1
      vertex -8.49589 -5.20548 1
      vertex -8.62246 -5.13346 1
    endloop
  endfacet
  facet normal -0 -0 1
    outer loop
      vertex -8.49589 -5.20548 1
      vertex -8.3665 -5.24926 1
      vertex -8.62246 -5.13346 1
    endloop
  endfacet
  facet normal 0 0 1
    outer loop
      vertex -8.01209 -5.26903 1
      vertex -7.84192 -5.21678 1
      vertex -7.78848 -5.18853 1
    endloop
  endfacet
  facet normal 0 -0 1
    outer loop
      vertex -7.88833 -5.23796 1
      vertex -7.84192 -5.21678 1
      vertex -8.01209 -5.26903 1
    endloop
  endfacet
  facet normal 0 -0 1
    outer loop
      vertex 4.84776 4.40757 1
      vertex 4.91105 4.45841 1
      vertex 3.68469 9.57351 1
    endloop
  endfacet
  facet normal 0 0 1
    outer loop
      vertex 3.82111 -9.83477 1
      vertex 4.58477 -10.0833 1
      vertex 5.01793 -9.9887 1
    endloop
  endfacet
  facet normal 0 0 1
    outer loop
      vertex -7.88833 -5.23796 1
      vertex -8.01209 -5.26903 1
      vertex -7.93053 -5.2535 1
    endloop
  endfacet
  facet normal 0 -0 1
    outer loop
      vertex -8.23149 -5.27327 1
      vertex -7.78848 -5.18853 1
      vertex -8.3665 -5.24926 1
    endloop
  endfacet
  facet normal 0 -0 1
    outer loop
      vertex -7.78848 -5.18853 1
      vertex -7.65206 -5.10239 1
      vertex -8.3665 -5.24926 1
    endloop
  endfacet
  facet normal 0 0 1
    outer loop
      vertex -7.65206 -5.10239 1
      vertex -8.62246 -5.13346 1
      vertex -8.3665 -5.24926 1
    endloop
  endfacet
  facet normal 0 0 1
    outer loop
      vertex -7.4622 -4.96681 1
      vertex -8.79685 -4.98376 1
      vertex -7.65206 -5.10239 1
    endloop
  endfacet
  facet normal 0 0 1
    outer loop
      vertex -9.14985 -4.66883 1
      vertex -8.79685 -4.98376 1
      vertex -7.4622 -4.96681 1
    endloop
  endfacet
  facet normal -0 -0 1
    outer loop
      vertex -9.14985 -4.66883 1
      vertex -7.4622 -4.96681 1
      vertex -9.48878 -2.49541 1
    endloop
  endfacet
  facet normal 0 0 1
    outer loop
      vertex -7.4622 -4.96681 1
      vertex -7.60987 -0.773902 1
      vertex -9.48878 -2.49541 1
    endloop
  endfacet
  facet normal 0 0 1
    outer loop
      vertex -4.25005 -2.5293 1
      vertex -7.60987 -0.773902 1
      vertex -7.4622 -4.96681 1
    endloop
  endfacet
  facet normal 0 0 1
    outer loop
      vertex -6.8645 -0.0833216 1
      vertex -7.60987 -0.773902 1
      vertex -4.25005 -2.5293 1
    endloop
  endfacet
  facet normal 0 0 1
    outer loop
      vertex -4.2163 -2.52507 1
      vertex -4.23177 2.35842 1
      vertex -4.23599 -2.52365 1
    endloop
  endfacet
  facet normal 0 0 1
    outer loop
      vertex 9.06265 -8.04406 1
      vertex 4.91105 -4.61517 1
      vertex 5.14591 -9.93363 1
    endloop
  endfacet
  facet normal 0 0 1
    outer loop
      vertex -1.01962 -0.0847338 1
      vertex -4.2163 -2.52507 1
      vertex -4.18536 -2.5406 1
    endloop
  endfacet
  facet normal 0 0 1
    outer loop
      vertex -1.01962 -0.0847338 1
      vertex -4.13754 -2.57591 1
      vertex -4.06582 -2.63522 1
    endloop
  endfacet
  facet normal 0 0 1
    outer loop
      vertex -1.01962 -0.0847338 1
      vertex -4.06582 -2.63522 1
      vertex -3.64813 -3.0137 1
    endloop
  endfacet
  facet normal 0 0 1
    outer loop
      vertex -3.64813 -3.0137 1
      vertex -0.881795 -0.200537 1
      vertex -1.01962 -0.0847338 1
    endloop
  endfacet
  facet normal 0 0 1
    outer loop
      vertex -4.20646 2.36549 1
      vertex -4.23177 2.35842 1
      vertex -1.01962 -0.0847338 1
    endloop
  endfacet
  facet normal 0 0 1
    outer loop
      vertex 4.91105 -4.61517 1
      vertex 9.92054 6.90863 1
      vertex 4.91105 4.45841 1
    endloop
  endfacet
  facet normal 0 0 1
    outer loop
      vertex 5.14591 -9.93363 1
      vertex 3.82111 -9.83477 1
      vertex 5.01793 -9.9887 1
    endloop
  endfacet
  facet normal -0 -0 1
    outer loop
      vertex 4.0616 -9.98023 1
      vertex 4.58477 -10.0833 1
      vertex 3.82111 -9.83477 1
    endloop
  endfacet
  facet normal -0 -0 1
    outer loop
      vertex 4.30068 -10.0593 1
      vertex 4.49757 -10.0833 1
      vertex 4.0616 -9.98023 1
    endloop
  endfacet
  facet normal 0 -0 1
    outer loop
      vertex 4.49757 -10.0833 1
      vertex 4.58477 -10.0833 1
      vertex 4.0616 -9.98023 1
    endloop
  endfacet
  facet normal 0 -0 1
    outer loop
      vertex -0.870544 0.0508403 1
      vertex 4.84776 4.40757 1
      vertex -4.0391 2.49541 1
    endloop
  endfacet
  facet normal 0 0 1
    outer loop
      vertex -3.64813 -3.0137 1
      vertex 3.61859 -9.67095 1
      vertex 4.91105 -4.61517 1
    endloop
  endfacet
  facet normal 0 0 1
    outer loop
      vertex 5.14591 -9.93363 1
      vertex 4.91105 -4.61517 1
      vertex 3.61859 -9.67095 1
    endloop
  endfacet
  facet normal 0 -0 1
    outer loop
      vertex 9.92054 -7.06962 1
      vertex 9.92054 6.90863 1
      vertex 4.91105 -4.61517 1
    endloop
  endfacet
  facet normal -0 0 1
    outer loop
      vertex -3.64813 -3.0137 1
      vertex 4.91105 -4.61517 1
      vertex -0.881795 -0.200537 1
    endloop
  endfacet
  facet normal 0 0 1
    outer loop
      vertex -4.14457 2.40644 1
      vertex -4.20646 2.36549 1
      vertex -1.01962 -0.0748482 1
    endloop
  endfacet
  facet normal 0 0 1
    outer loop
      vertex -1.01962 -0.0748482 1
      vertex -4.20646 2.36549 1
      vertex -1.01962 -0.0847338 1
    endloop
  endfacet
  facet normal -0 0 1
    outer loop
      vertex -4.14457 2.40644 1
      vertex -1.01962 -0.0748482 1
      vertex -4.0391 2.49541 1
    endloop
  endfacet
  facet normal 0 -0 1
    outer loop
      vertex -1.01962 -0.0748482 1
      vertex -0.870544 0.0508403 1
      vertex -4.0391 2.49541 1
    endloop
  endfacet
  facet normal 0.0999141 -0.994996 0
    outer loop
      vertex 4.73525 -10.072 0
      vertex 4.65087 -10.0805 1
      vertex 4.65087 -10.0805 0
    endloop
  endfacet
  facet normal 0.0999141 -0.994996 0
    outer loop
      vertex 4.73525 -10.072 0
      vertex 4.73525 -10.072 1
      vertex 4.65087 -10.0805 1
    endloop
  endfacet
  facet normal 0.196902 -0.980423 0
    outer loop
      vertex 4.81963 -10.0551 0
      vertex 4.73525 -10.072 1
      vertex 4.73525 -10.072 0
    endloop
  endfacet
  facet normal 0.196902 -0.980423 0
    outer loop
      vertex 4.81963 -10.0551 0
      vertex 4.81963 -10.0551 1
      vertex 4.73525 -10.072 1
    endloop
  endfacet
  facet normal 0.281643 -0.959519 0
    outer loop
      vertex 4.91105 -10.0282 0
      vertex 4.81963 -10.0551 1
      vertex 4.81963 -10.0551 0
    endloop
  endfacet
  facet normal 0.281643 -0.959519 0
    outer loop
      vertex 4.91105 -10.0282 0
      vertex 4.91105 -10.0282 1
      vertex 4.81963 -10.0551 1
    endloop
  endfacet
  facet normal 0.346973 -0.937875 0
    outer loop
      vertex 5.01793 -9.9887 0
      vertex 4.91105 -10.0282 1
      vertex 4.91105 -10.0282 0
    endloop
  endfacet
  facet normal 0.346973 -0.937875 0
    outer loop
      vertex 5.01793 -9.9887 0
      vertex 5.01793 -9.9887 1
      vertex 4.91105 -10.0282 1
    endloop
  endfacet
  facet normal 0.395304 -0.91855 0
    outer loop
      vertex 5.14591 -9.93363 0
      vertex 5.01793 -9.9887 1
      vertex 5.01793 -9.9887 0
    endloop
  endfacet
  facet normal 0.395304 -0.91855 0
    outer loop
      vertex 5.14591 -9.93363 0
      vertex 5.14591 -9.93363 1
      vertex 5.01793 -9.9887 1
    endloop
  endfacet
  facet normal 0.434511 -0.900667 0
    outer loop
      vertex 9.06265 -8.04406 0
      vertex 5.14591 -9.93363 1
      vertex 5.14591 -9.93363 0
    endloop
  endfacet
  facet normal 0.434511 -0.900667 0
    outer loop
      vertex 9.06265 -8.04406 0
      vertex 9.06265 -8.04406 1
      vertex 5.14591 -9.93363 1
    endloop
  endfacet
  facet normal 0.451135 -0.892456 0
    outer loop
      vertex 9.26939 -7.93956 0
      vertex 9.06265 -8.04406 1
      vertex 9.06265 -8.04406 0
    endloop
  endfacet
  facet normal 0.451135 -0.892456 0
    outer loop
      vertex 9.26939 -7.93956 0
      vertex 9.26939 -7.93956 1
      vertex 9.06265 -8.04406 1
    endloop
  endfacet
  facet normal 0.487187 -0.873298 0
    outer loop
      vertex 9.32002 -7.91131 0
      vertex 9.26939 -7.93956 1
      vertex 9.26939 -7.93956 0
    endloop
  endfacet
  facet normal 0.487187 -0.873298 0
    outer loop
      vertex 9.32002 -7.91131 0
      vertex 9.32002 -7.91131 1
      vertex 9.26939 -7.93956 1
    endloop
  endfacet
  facet normal 0.585073 -0.81098 0
    outer loop
      vertex 9.46488 -7.80681 0
      vertex 9.32002 -7.91131 1
      vertex 9.32002 -7.91131 0
    endloop
  endfacet
  facet normal 0.585073 -0.81098 0
    outer loop
      vertex 9.46488 -7.80681 0
      vertex 9.46488 -7.80681 1
      vertex 9.32002 -7.91131 1
    endloop
  endfacet
  facet normal 0.705591 -0.708619 0
    outer loop
      vertex 9.63223 -7.64016 0
      vertex 9.46488 -7.80681 1
      vertex 9.46488 -7.80681 0
    endloop
  endfacet
  facet normal 0.705591 -0.708619 0
    outer loop
      vertex 9.63223 -7.64016 0
      vertex 9.63223 -7.64016 1
      vertex 9.46488 -7.80681 1
    endloop
  endfacet
  facet normal 0.819239 -0.573453 0
    outer loop
      vertex 9.76865 -7.44528 0
      vertex 9.63223 -7.64016 1
      vertex 9.63223 -7.64016 0
    endloop
  endfacet
  facet normal 0.819239 -0.573453 0
    outer loop
      vertex 9.76865 -7.44528 0
      vertex 9.76865 -7.44528 1
      vertex 9.63223 -7.64016 1
    endloop
  endfacet
  facet normal 0.899783 -0.436337 0
    outer loop
      vertex 9.84741 -7.28287 0
      vertex 9.76865 -7.44528 1
      vertex 9.76865 -7.44528 0
    endloop
  endfacet
  facet normal 0.899783 -0.436337 0
    outer loop
      vertex 9.84741 -7.28287 0
      vertex 9.84741 -7.28287 1
      vertex 9.76865 -7.44528 1
    endloop
  endfacet
  facet normal 0.945921 -0.324396 0
    outer loop
      vertex 9.92054 -7.06962 0
      vertex 9.84741 -7.28287 1
      vertex 9.84741 -7.28287 0
    endloop
  endfacet
  facet normal 0.945921 -0.324396 0
    outer loop
      vertex 9.92054 -7.06962 0
      vertex 9.92054 -7.06962 1
      vertex 9.84741 -7.28287 1
    endloop
  endfacet
  facet normal 1 0 0
    outer loop
      vertex 9.92054 6.90863 0
      vertex 9.92054 -7.06962 1
      vertex 9.92054 -7.06962 0
    endloop
  endfacet
  facet normal 1 0 -0
    outer loop
      vertex 9.92054 6.90863 0
      vertex 9.92054 6.90863 1
      vertex 9.92054 -7.06962 1
    endloop
  endfacet
  facet normal 0.947179 0.320705 0
    outer loop
      vertex 9.84882 7.12046 0
      vertex 9.92054 6.90863 1
      vertex 9.92054 6.90863 0
    endloop
  endfacet
  facet normal 0.947179 0.320705 -0
    outer loop
      vertex 9.84882 7.12046 0
      vertex 9.84882 7.12046 1
      vertex 9.92054 6.90863 1
    endloop
  endfacet
  facet normal 0.898278 0.439428 0
    outer loop
      vertex 9.77006 7.28146 0
      vertex 9.84882 7.12046 1
      vertex 9.84882 7.12046 0
    endloop
  endfacet
  facet normal 0.898278 0.439428 -0
    outer loop
      vertex 9.77006 7.28146 0
      vertex 9.77006 7.28146 1
      vertex 9.84882 7.12046 1
    endloop
  endfacet
  facet normal 0.824792 0.565436 0
    outer loop
      vertex 9.63645 7.47635 0
      vertex 9.77006 7.28146 1
      vertex 9.77006 7.28146 0
    endloop
  endfacet
  facet normal 0.824792 0.565436 -0
    outer loop
      vertex 9.63645 7.47635 0
      vertex 9.63645 7.47635 1
      vertex 9.77006 7.28146 1
    endloop
  endfacet
  facet normal 0.708575 0.705635 0
    outer loop
      vertex 9.4705 7.64299 0
      vertex 9.63645 7.47635 1
      vertex 9.63645 7.47635 0
    endloop
  endfacet
  facet normal 0.708575 0.705635 -0
    outer loop
      vertex 9.4705 7.64299 0
      vertex 9.4705 7.64299 1
      vertex 9.63645 7.47635 1
    endloop
  endfacet
  facet normal 0.59121 0.806517 0
    outer loop
      vertex 9.32986 7.74608 0
      vertex 9.4705 7.64299 1
      vertex 9.4705 7.64299 0
    endloop
  endfacet
  facet normal 0.59121 0.806517 -0
    outer loop
      vertex 9.32986 7.74608 0
      vertex 9.32986 7.74608 1
      vertex 9.4705 7.64299 1
    endloop
  endfacet
  facet normal 0.476219 0.879327 0
    outer loop
      vertex 9.2047 7.81387 0
      vertex 9.32986 7.74608 1
      vertex 9.32986 7.74608 0
    endloop
  endfacet
  facet normal 0.476219 0.879327 -0
    outer loop
      vertex 9.2047 7.81387 0
      vertex 9.2047 7.81387 1
      vertex 9.32986 7.74608 1
    endloop
  endfacet
  facet normal 0.439897 0.898048 0
    outer loop
      vertex 8.68575 8.06807 0
      vertex 9.2047 7.81387 1
      vertex 9.2047 7.81387 0
    endloop
  endfacet
  facet normal 0.439897 0.898048 -0
    outer loop
      vertex 8.68575 8.06807 0
      vertex 8.68575 8.06807 1
      vertex 9.2047 7.81387 1
    endloop
  endfacet
  facet normal 0.434681 0.900584 0
    outer loop
      vertex 7.66753 8.55953 0
      vertex 8.68575 8.06807 1
      vertex 8.68575 8.06807 0
    endloop
  endfacet
  facet normal 0.434681 0.900584 -0
    outer loop
      vertex 7.66753 8.55953 0
      vertex 7.66753 8.55953 1
      vertex 8.68575 8.06807 1
    endloop
  endfacet
  facet normal 0.516069 0.856547 0
    outer loop
      vertex 7.63941 8.57647 0
      vertex 7.66753 8.55953 1
      vertex 7.66753 8.55953 0
    endloop
  endfacet
  facet normal 0.516069 0.856547 -0
    outer loop
      vertex 7.63941 8.57647 0
      vertex 7.63941 8.57647 1
      vertex 7.66753 8.55953 1
    endloop
  endfacet
  facet normal 0 1 0
    outer loop
      vertex 7.62112 8.57647 0
      vertex 7.63941 8.57647 1
      vertex 7.63941 8.57647 0
    endloop
  endfacet
  facet normal 0 1 0
    outer loop
      vertex 7.62112 8.57647 0
      vertex 7.62112 8.57647 1
      vertex 7.63941 8.57647 1
    endloop
  endfacet
  facet normal 0.516069 0.856547 0
    outer loop
      vertex 7.593 8.59342 0
      vertex 7.62112 8.57647 1
      vertex 7.62112 8.57647 0
    endloop
  endfacet
  facet normal 0.516069 0.856547 -0
    outer loop
      vertex 7.593 8.59342 0
      vertex 7.593 8.59342 1
      vertex 7.62112 8.57647 1
    endloop
  endfacet
  facet normal 0.43405 0.900889 0
    outer loop
      vertex 5.01652 9.83477 0
      vertex 7.593 8.59342 1
      vertex 7.593 8.59342 0
    endloop
  endfacet
  facet normal 0.43405 0.900889 -0
    outer loop
      vertex 5.01652 9.83477 0
      vertex 5.01652 9.83477 1
      vertex 7.593 8.59342 1
    endloop
  endfacet
  facet normal 0.305569 0.95217 0
    outer loop
      vertex 4.88011 9.87855 0
      vertex 5.01652 9.83477 1
      vertex 5.01652 9.83477 0
    endloop
  endfacet
  facet normal 0.305569 0.95217 -0
    outer loop
      vertex 4.88011 9.87855 0
      vertex 4.88011 9.87855 1
      vertex 5.01652 9.83477 1
    endloop
  endfacet
  facet normal 0.170833 0.9853 0
    outer loop
      vertex 4.68462 9.91244 0
      vertex 4.88011 9.87855 1
      vertex 4.88011 9.87855 0
    endloop
  endfacet
  facet normal 0.170833 0.9853 -0
    outer loop
      vertex 4.68462 9.91244 0
      vertex 4.68462 9.91244 1
      vertex 4.88011 9.87855 1
    endloop
  endfacet
  facet normal 0.0209156 0.999781 0
    outer loop
      vertex 4.4821 9.91668 0
      vertex 4.68462 9.91244 1
      vertex 4.68462 9.91244 0
    endloop
  endfacet
  facet normal 0.0209156 0.999781 -0
    outer loop
      vertex 4.4821 9.91668 0
      vertex 4.4821 9.91668 1
      vertex 4.68462 9.91244 1
    endloop
  endfacet
  facet normal -0.100821 0.994905 0
    outer loop
      vertex 4.32881 9.90114 0
      vertex 4.4821 9.91668 1
      vertex 4.4821 9.91668 0
    endloop
  endfacet
  facet normal -0.100821 0.994905 0
    outer loop
      vertex 4.32881 9.90114 0
      vertex 4.32881 9.90114 1
      vertex 4.4821 9.91668 1
    endloop
  endfacet
  facet normal -0.186639 0.982429 0
    outer loop
      vertex 4.22474 9.88137 0
      vertex 4.32881 9.90114 1
      vertex 4.32881 9.90114 0
    endloop
  endfacet
  facet normal -0.186639 0.982429 0
    outer loop
      vertex 4.22474 9.88137 0
      vertex 4.22474 9.88137 1
      vertex 4.32881 9.90114 1
    endloop
  endfacet
  facet normal -0.390705 0.920516 0
    outer loop
      vertex 3.9519 9.76557 0
      vertex 4.22474 9.88137 1
      vertex 4.22474 9.88137 0
    endloop
  endfacet
  facet normal -0.390705 0.920516 0
    outer loop
      vertex 3.9519 9.76557 0
      vertex 3.9519 9.76557 1
      vertex 4.22474 9.88137 1
    endloop
  endfacet
  facet normal -0.583648 0.812007 0
    outer loop
      vertex 3.68469 9.57351 0
      vertex 3.9519 9.76557 1
      vertex 3.9519 9.76557 0
    endloop
  endfacet
  facet normal -0.583648 0.812007 0
    outer loop
      vertex 3.68469 9.57351 0
      vertex 3.68469 9.57351 1
      vertex 3.9519 9.76557 1
    endloop
  endfacet
  facet normal -0.675619 0.737251 0
    outer loop
      vertex -4.0391 2.49541 0
      vertex 3.68469 9.57351 1
      vertex 3.68469 9.57351 0
    endloop
  endfacet
  facet normal -0.675619 0.737251 0
    outer loop
      vertex -4.0391 2.49541 0
      vertex -4.0391 2.49541 1
      vertex 3.68469 9.57351 1
    endloop
  endfacet
  facet normal -0.644759 0.764386 0
    outer loop
      vertex -4.14457 2.40644 0
      vertex -4.0391 2.49541 1
      vertex -4.0391 2.49541 0
    endloop
  endfacet
  facet normal -0.644759 0.764386 0
    outer loop
      vertex -4.14457 2.40644 0
      vertex -4.14457 2.40644 1
      vertex -4.0391 2.49541 1
    endloop
  endfacet
  facet normal -0.551909 0.833905 0
    outer loop
      vertex -4.20646 2.36549 0
      vertex -4.14457 2.40644 1
      vertex -4.14457 2.40644 0
    endloop
  endfacet
  facet normal -0.551909 0.833905 0
    outer loop
      vertex -4.20646 2.36549 0
      vertex -4.20646 2.36549 1
      vertex -4.14457 2.40644 1
    endloop
  endfacet
  facet normal -0.268679 0.96323 0
    outer loop
      vertex -4.23177 2.35842 0
      vertex -4.20646 2.36549 1
      vertex -4.20646 2.36549 0
    endloop
  endfacet
  facet normal -0.268679 0.96323 0
    outer loop
      vertex -4.23177 2.35842 0
      vertex -4.23177 2.35842 1
      vertex -4.20646 2.36549 1
    endloop
  endfacet
  facet normal 0.575062 0.81811 0
    outer loop
      vertex -4.31615 2.41774 0
      vertex -4.23177 2.35842 1
      vertex -4.23177 2.35842 0
    endloop
  endfacet
  facet normal 0.575062 0.81811 -0
    outer loop
      vertex -4.31615 2.41774 0
      vertex -4.31615 2.41774 1
      vertex -4.23177 2.35842 1
    endloop
  endfacet
  facet normal 0.605329 0.795975 0
    outer loop
      vertex -7.28922 4.67872 0
      vertex -4.31615 2.41774 1
      vertex -4.31615 2.41774 0
    endloop
  endfacet
  facet normal 0.605329 0.795975 -0
    outer loop
      vertex -7.28922 4.67872 0
      vertex -7.28922 4.67872 1
      vertex -4.31615 2.41774 1
    endloop
  endfacet
  facet normal 0.592823 0.805333 0
    outer loop
      vertex -7.64222 4.93857 0
      vertex -7.28922 4.67872 1
      vertex -7.28922 4.67872 0
    endloop
  endfacet
  facet normal 0.592823 0.805333 -0
    outer loop
      vertex -7.64222 4.93857 0
      vertex -7.64222 4.93857 1
      vertex -7.28922 4.67872 1
    endloop
  endfacet
  facet normal 0.56074 0.827992 0
    outer loop
      vertex -7.76317 5.02048 0
      vertex -7.64222 4.93857 1
      vertex -7.64222 4.93857 0
    endloop
  endfacet
  facet normal 0.56074 0.827992 -0
    outer loop
      vertex -7.76317 5.02048 0
      vertex -7.76317 5.02048 1
      vertex -7.64222 4.93857 1
    endloop
  endfacet
  facet normal 0.511372 0.85936 0
    outer loop
      vertex -7.80114 5.04307 0
      vertex -7.76317 5.02048 1
      vertex -7.76317 5.02048 0
    endloop
  endfacet
  facet normal 0.511372 0.85936 -0
    outer loop
      vertex -7.80114 5.04307 0
      vertex -7.80114 5.04307 1
      vertex -7.76317 5.02048 1
    endloop
  endfacet
  facet normal 0.398303 0.917254 0
    outer loop
      vertex -7.85317 5.06567 0
      vertex -7.80114 5.04307 1
      vertex -7.80114 5.04307 0
    endloop
  endfacet
  facet normal 0.398303 0.917254 -0
    outer loop
      vertex -7.85317 5.06567 0
      vertex -7.85317 5.06567 1
      vertex -7.80114 5.04307 1
    endloop
  endfacet
  facet normal 0.305927 0.952055 0
    outer loop
      vertex -7.92349 5.08826 0
      vertex -7.85317 5.06567 1
      vertex -7.85317 5.06567 0
    endloop
  endfacet
  facet normal 0.305927 0.952055 -0
    outer loop
      vertex -7.92349 5.08826 0
      vertex -7.92349 5.08826 1
      vertex -7.85317 5.06567 1
    endloop
  endfacet
  facet normal 0.149861 0.988707 0
    outer loop
      vertex -8.07257 5.11086 0
      vertex -7.92349 5.08826 1
      vertex -7.92349 5.08826 0
    endloop
  endfacet
  facet normal 0.149861 0.988707 -0
    outer loop
      vertex -8.07257 5.11086 0
      vertex -8.07257 5.11086 1
      vertex -7.92349 5.08826 1
    endloop
  endfacet
  facet normal -0.0146578 0.999893 0
    outer loop
      vertex -8.26524 5.10804 0
      vertex -8.07257 5.11086 1
      vertex -8.07257 5.11086 0
    endloop
  endfacet
  facet normal -0.0146578 0.999893 0
    outer loop
      vertex -8.26524 5.10804 0
      vertex -8.26524 5.10804 1
      vertex -8.07257 5.11086 1
    endloop
  endfacet
  facet normal -0.227408 0.973799 0
    outer loop
      vertex -8.44666 5.06567 0
      vertex -8.26524 5.10804 1
      vertex -8.26524 5.10804 0
    endloop
  endfacet
  facet normal -0.227408 0.973799 0
    outer loop
      vertex -8.44666 5.06567 0
      vertex -8.44666 5.06567 1
      vertex -8.26524 5.10804 1
    endloop
  endfacet
  facet normal -0.410473 0.911873 0
    outer loop
      vertex -8.56902 5.01059 0
      vertex -8.44666 5.06567 1
      vertex -8.44666 5.06567 0
    endloop
  endfacet
  facet normal -0.410473 0.911873 0
    outer loop
      vertex -8.56902 5.01059 0
      vertex -8.56902 5.01059 1
      vertex -8.44666 5.06567 1
    endloop
  endfacet
  facet normal -0.566283 0.824211 0
    outer loop
      vertex -8.62246 4.97387 0
      vertex -8.56902 5.01059 1
      vertex -8.56902 5.01059 0
    endloop
  endfacet
  facet normal -0.566283 0.824211 0
    outer loop
      vertex -8.62246 4.97387 0
      vertex -8.62246 4.97387 1
      vertex -8.56902 5.01059 1
    endloop
  endfacet
  facet normal -0.658275 0.752778 0
    outer loop
      vertex -8.95999 4.67872 0
      vertex -8.62246 4.97387 1
      vertex -8.62246 4.97387 0
    endloop
  endfacet
  facet normal -0.658275 0.752778 0
    outer loop
      vertex -8.95999 4.67872 0
      vertex -8.95999 4.67872 1
      vertex -8.62246 4.97387 1
    endloop
  endfacet
  facet normal -0.670802 0.741637 0
    outer loop
      vertex -9.34252 4.33272 0
      vertex -8.95999 4.67872 1
      vertex -8.95999 4.67872 0
    endloop
  endfacet
  facet normal -0.670802 0.741637 0
    outer loop
      vertex -9.34252 4.33272 0
      vertex -9.34252 4.33272 1
      vertex -8.95999 4.67872 1
    endloop
  endfacet
  facet normal -0.679678 0.733511 0
    outer loop
      vertex -9.68849 4.01215 0
      vertex -9.34252 4.33272 1
      vertex -9.34252 4.33272 0
    endloop
  endfacet
  facet normal -0.679678 0.733511 0
    outer loop
      vertex -9.68849 4.01215 0
      vertex -9.68849 4.01215 1
      vertex -9.34252 4.33272 1
    endloop
  endfacet
  facet normal -0.694029 0.719947 0
    outer loop
      vertex -9.82913 3.87657 0
      vertex -9.68849 4.01215 1
      vertex -9.68849 4.01215 0
    endloop
  endfacet
  facet normal -0.694029 0.719947 0
    outer loop
      vertex -9.82913 3.87657 0
      vertex -9.82913 3.87657 1
      vertex -9.68849 4.01215 1
    endloop
  endfacet
  facet normal -0.75452 0.656277 0
    outer loop
      vertex -9.92617 3.765 0
      vertex -9.82913 3.87657 1
      vertex -9.82913 3.87657 0
    endloop
  endfacet
  facet normal -0.75452 0.656277 0
    outer loop
      vertex -9.92617 3.765 0
      vertex -9.92617 3.765 1
      vertex -9.82913 3.87657 1
    endloop
  endfacet
  facet normal -0.837828 0.545934 0
    outer loop
      vertex -10.0007 3.65061 0
      vertex -9.92617 3.765 1
      vertex -9.92617 3.765 0
    endloop
  endfacet
  facet normal -0.837828 0.545934 0
    outer loop
      vertex -10.0007 3.65061 0
      vertex -10.0007 3.65061 1
      vertex -9.92617 3.765 1
    endloop
  endfacet
  facet normal -0.906855 0.421443 0
    outer loop
      vertex -10.0499 3.5447 0
      vertex -10.0007 3.65061 1
      vertex -10.0007 3.65061 0
    endloop
  endfacet
  facet normal -0.906855 0.421443 0
    outer loop
      vertex -10.0499 3.5447 0
      vertex -10.0499 3.5447 1
      vertex -10.0007 3.65061 1
    endloop
  endfacet
  facet normal -0.953024 0.302895 0
    outer loop
      vertex -10.071 3.47832 0
      vertex -10.0499 3.5447 1
      vertex -10.0499 3.5447 0
    endloop
  endfacet
  facet normal -0.953024 0.302895 0
    outer loop
      vertex -10.071 3.47832 0
      vertex -10.071 3.47832 1
      vertex -10.0499 3.5447 1
    endloop
  endfacet
  facet normal -0.994551 0.104255 0
    outer loop
      vertex -10.0795 3.39783 0
      vertex -10.071 3.47832 1
      vertex -10.071 3.47832 0
    endloop
  endfacet
  facet normal -0.994551 0.104255 0
    outer loop
      vertex -10.0795 3.39783 0
      vertex -10.0795 3.39783 1
      vertex -10.071 3.47832 1
    endloop
  endfacet
  facet normal -1 0 0
    outer loop
      vertex -10.0795 3.23683 0
      vertex -10.0795 3.39783 1
      vertex -10.0795 3.39783 0
    endloop
  endfacet
  facet normal -1 0 0
    outer loop
      vertex -10.0795 3.23683 0
      vertex -10.0795 3.23683 1
      vertex -10.0795 3.39783 1
    endloop
  endfacet
  facet normal -0.998161 -0.060611 0
    outer loop
      vertex -10.0724 3.12103 0
      vertex -10.0795 3.23683 1
      vertex -10.0795 3.23683 0
    endloop
  endfacet
  facet normal -0.998161 -0.060611 0
    outer loop
      vertex -10.0724 3.12103 0
      vertex -10.0724 3.12103 1
      vertex -10.0795 3.23683 1
    endloop
  endfacet
  facet normal -0.983132 -0.1829 0
    outer loop
      vertex -10.0485 2.99252 0
      vertex -10.0724 3.12103 1
      vertex -10.0724 3.12103 0
    endloop
  endfacet
  facet normal -0.983132 -0.1829 0
    outer loop
      vertex -10.0485 2.99252 0
      vertex -10.0485 2.99252 1
      vertex -10.0724 3.12103 1
    endloop
  endfacet
  facet normal -0.936807 -0.349845 0
    outer loop
      vertex -10.0063 2.87954 0
      vertex -10.0485 2.99252 1
      vertex -10.0485 2.99252 0
    endloop
  endfacet
  facet normal -0.936807 -0.349845 0
    outer loop
      vertex -10.0063 2.87954 0
      vertex -10.0063 2.87954 1
      vertex -10.0485 2.99252 1
    endloop
  endfacet
  facet normal -0.866327 -0.499477 0
    outer loop
      vertex -9.95992 2.79904 0
      vertex -10.0063 2.87954 1
      vertex -10.0063 2.87954 0
    endloop
  endfacet
  facet normal -0.866327 -0.499477 0
    outer loop
      vertex -9.95992 2.79904 0
      vertex -9.95992 2.79904 1
      vertex -10.0063 2.87954 1
    endloop
  endfacet
  facet normal -0.809897 -0.586572 0
    outer loop
      vertex -9.93742 2.76797 0
      vertex -9.95992 2.79904 1
      vertex -9.95992 2.79904 0
    endloop
  endfacet
  facet normal -0.809897 -0.586572 0
    outer loop
      vertex -9.93742 2.76797 0
      vertex -9.93742 2.76797 1
      vertex -9.95992 2.79904 1
    endloop
  endfacet
  facet normal -0.712891 -0.701275 0
    outer loop
      vertex -9.8235 2.65217 0
      vertex -9.93742 2.76797 1
      vertex -9.93742 2.76797 0
    endloop
  endfacet
  facet normal -0.712891 -0.701275 0
    outer loop
      vertex -9.8235 2.65217 0
      vertex -9.8235 2.65217 1
      vertex -9.93742 2.76797 1
    endloop
  endfacet
  facet normal -0.684144 -0.729347 0
    outer loop
      vertex -9.35377 2.21155 0
      vertex -9.8235 2.65217 1
      vertex -9.8235 2.65217 0
    endloop
  endfacet
  facet normal -0.684144 -0.729347 0
    outer loop
      vertex -9.35377 2.21155 0
      vertex -9.35377 2.21155 1
      vertex -9.8235 2.65217 1
    endloop
  endfacet
  facet normal -0.676143 -0.736771 0
    outer loop
      vertex -6.93622 -0.00706115 0
      vertex -9.35377 2.21155 1
      vertex -9.35377 2.21155 0
    endloop
  endfacet
  facet normal -0.676143 -0.736771 0
    outer loop
      vertex -6.93622 -0.00706115 0
      vertex -6.93622 -0.00706115 1
      vertex -9.35377 2.21155 1
    endloop
  endfacet
  facet normal -0.728436 -0.685113 0
    outer loop
      vertex -6.8645 -0.0833216 0
      vertex -6.93622 -0.00706115 1
      vertex -6.93622 -0.00706115 0
    endloop
  endfacet
  facet normal -0.728436 -0.685113 0
    outer loop
      vertex -6.8645 -0.0833216 0
      vertex -6.8645 -0.0833216 1
      vertex -6.93622 -0.00706115 1
    endloop
  endfacet
  facet normal -0.679629 0.733556 0
    outer loop
      vertex -7.60987 -0.773902 0
      vertex -6.8645 -0.0833216 1
      vertex -6.8645 -0.0833216 0
    endloop
  endfacet
  facet normal -0.679629 0.733556 0
    outer loop
      vertex -7.60987 -0.773902 0
      vertex -7.60987 -0.773902 1
      vertex -6.8645 -0.0833216 1
    endloop
  endfacet
  facet normal -0.675548 0.737316 0
    outer loop
      vertex -9.48878 -2.49541 0
      vertex -7.60987 -0.773902 1
      vertex -7.60987 -0.773902 0
    endloop
  endfacet
  facet normal -0.675548 0.737316 0
    outer loop
      vertex -9.48878 -2.49541 0
      vertex -9.48878 -2.49541 1
      vertex -7.60987 -0.773902 1
    endloop
  endfacet
  facet normal -0.685098 0.728451 0
    outer loop
      vertex -9.77709 -2.76656 0
      vertex -9.48878 -2.49541 1
      vertex -9.48878 -2.49541 0
    endloop
  endfacet
  facet normal -0.685098 0.728451 0
    outer loop
      vertex -9.77709 -2.76656 0
      vertex -9.77709 -2.76656 1
      vertex -9.48878 -2.49541 1
    endloop
  endfacet
  facet normal -0.711546 0.702639 0
    outer loop
      vertex -9.94304 -2.93461 0
      vertex -9.77709 -2.76656 1
      vertex -9.77709 -2.76656 0
    endloop
  endfacet
  facet normal -0.711546 0.702639 0
    outer loop
      vertex -9.94304 -2.93461 0
      vertex -9.94304 -2.93461 1
      vertex -9.77709 -2.76656 1
    endloop
  endfacet
  facet normal -0.833112 0.553104 0
    outer loop
      vertex -9.95992 -2.96003 0
      vertex -9.94304 -2.93461 1
      vertex -9.94304 -2.93461 0
    endloop
  endfacet
  facet normal -0.833112 0.553104 0
    outer loop
      vertex -9.95992 -2.96003 0
      vertex -9.95992 -2.96003 1
      vertex -9.94304 -2.93461 1
    endloop
  endfacet
  facet normal -0.866327 0.499477 0
    outer loop
      vertex -10.0063 -3.04053 0
      vertex -9.95992 -2.96003 1
      vertex -9.95992 -2.96003 0
    endloop
  endfacet
  facet normal -0.866327 0.499477 0
    outer loop
      vertex -10.0063 -3.04053 0
      vertex -10.0063 -3.04053 1
      vertex -9.95992 -2.96003 1
    endloop
  endfacet
  facet normal -0.936807 0.349845 0
    outer loop
      vertex -10.0485 -3.15351 0
      vertex -10.0063 -3.04053 1
      vertex -10.0063 -3.04053 0
    endloop
  endfacet
  facet normal -0.936807 0.349845 0
    outer loop
      vertex -10.0485 -3.15351 0
      vertex -10.0485 -3.15351 1
      vertex -10.0063 -3.04053 1
    endloop
  endfacet
  facet normal -0.983132 0.1829 0
    outer loop
      vertex -10.0724 -3.28202 0
      vertex -10.0485 -3.15351 1
      vertex -10.0485 -3.15351 0
    endloop
  endfacet
  facet normal -0.983132 0.1829 0
    outer loop
      vertex -10.0724 -3.28202 0
      vertex -10.0724 -3.28202 1
      vertex -10.0485 -3.15351 1
    endloop
  endfacet
  facet normal -0.998161 0.060611 0
    outer loop
      vertex -10.0795 -3.39783 0
      vertex -10.0724 -3.28202 1
      vertex -10.0724 -3.28202 0
    endloop
  endfacet
  facet normal -0.998161 0.060611 0
    outer loop
      vertex -10.0795 -3.39783 0
      vertex -10.0795 -3.39783 1
      vertex -10.0724 -3.28202 1
    endloop
  endfacet
  facet normal -1 0 0
    outer loop
      vertex -10.0795 -3.55882 0
      vertex -10.0795 -3.39783 1
      vertex -10.0795 -3.39783 0
    endloop
  endfacet
  facet normal -1 0 0
    outer loop
      vertex -10.0795 -3.55882 0
      vertex -10.0795 -3.55882 1
      vertex -10.0795 -3.39783 1
    endloop
  endfacet
  facet normal -0.994551 -0.104255 0
    outer loop
      vertex -10.071 -3.63932 0
      vertex -10.0795 -3.55882 1
      vertex -10.0795 -3.55882 0
    endloop
  endfacet
  facet normal -0.994551 -0.104255 0
    outer loop
      vertex -10.071 -3.63932 0
      vertex -10.071 -3.63932 1
      vertex -10.0795 -3.55882 1
    endloop
  endfacet
  facet normal -0.953024 -0.302895 0
    outer loop
      vertex -10.0499 -3.70569 0
      vertex -10.071 -3.63932 1
      vertex -10.071 -3.63932 0
    endloop
  endfacet
  facet normal -0.953024 -0.302895 0
    outer loop
      vertex -10.0499 -3.70569 0
      vertex -10.0499 -3.70569 1
      vertex -10.071 -3.63932 1
    endloop
  endfacet
  facet normal -0.906855 -0.421443 0
    outer loop
      vertex -10.0007 -3.81161 0
      vertex -10.0499 -3.70569 1
      vertex -10.0499 -3.70569 0
    endloop
  endfacet
  facet normal -0.906855 -0.421443 0
    outer loop
      vertex -10.0007 -3.81161 0
      vertex -10.0007 -3.81161 1
      vertex -10.0499 -3.70569 1
    endloop
  endfacet
  facet normal -0.837828 -0.545934 0
    outer loop
      vertex -9.92617 -3.926 0
      vertex -10.0007 -3.81161 1
      vertex -10.0007 -3.81161 0
    endloop
  endfacet
  facet normal -0.837828 -0.545934 0
    outer loop
      vertex -9.92617 -3.926 0
      vertex -9.92617 -3.926 1
      vertex -10.0007 -3.81161 1
    endloop
  endfacet
  facet normal -0.75452 -0.656277 0
    outer loop
      vertex -9.82913 -4.03757 0
      vertex -9.92617 -3.926 1
      vertex -9.92617 -3.926 0
    endloop
  endfacet
  facet normal -0.75452 -0.656277 0
    outer loop
      vertex -9.82913 -4.03757 0
      vertex -9.82913 -4.03757 1
      vertex -9.92617 -3.926 1
    endloop
  endfacet
  facet normal -0.708575 -0.705635 0
    outer loop
      vertex -9.7785 -4.08841 0
      vertex -9.82913 -4.03757 1
      vertex -9.82913 -4.03757 0
    endloop
  endfacet
  facet normal -0.708575 -0.705635 0
    outer loop
      vertex -9.7785 -4.08841 0
      vertex -9.7785 -4.08841 1
      vertex -9.82913 -4.03757 1
    endloop
  endfacet
  facet normal -0.683241 -0.730193 0
    outer loop
      vertex -9.53098 -4.32001 0
      vertex -9.7785 -4.08841 1
      vertex -9.7785 -4.08841 0
    endloop
  endfacet
  facet normal -0.683241 -0.730193 0
    outer loop
      vertex -9.53098 -4.32001 0
      vertex -9.53098 -4.32001 1
      vertex -9.7785 -4.08841 1
    endloop
  endfacet
  facet normal -0.675151 -0.73768 0
    outer loop
      vertex -9.14985 -4.66883 0
      vertex -9.53098 -4.32001 1
      vertex -9.53098 -4.32001 0
    endloop
  endfacet
  facet normal -0.675151 -0.73768 0
    outer loop
      vertex -9.14985 -4.66883 0
      vertex -9.14985 -4.66883 1
      vertex -9.53098 -4.32001 1
    endloop
  endfacet
  facet normal -0.665721 -0.746201 0
    outer loop
      vertex -8.79685 -4.98376 0
      vertex -9.14985 -4.66883 1
      vertex -9.14985 -4.66883 0
    endloop
  endfacet
  facet normal -0.665721 -0.746201 0
    outer loop
      vertex -8.79685 -4.98376 0
      vertex -8.79685 -4.98376 1
      vertex -9.14985 -4.66883 1
    endloop
  endfacet
  facet normal -0.651341 -0.758785 0
    outer loop
      vertex -8.62246 -5.13346 0
      vertex -8.79685 -4.98376 1
      vertex -8.79685 -4.98376 0
    endloop
  endfacet
  facet normal -0.651341 -0.758785 0
    outer loop
      vertex -8.62246 -5.13346 0
      vertex -8.62246 -5.13346 1
      vertex -8.79685 -4.98376 1
    endloop
  endfacet
  facet normal -0.580347 -0.814369 0
    outer loop
      vertex -8.57886 -5.16452 0
      vertex -8.62246 -5.13346 1
      vertex -8.62246 -5.13346 0
    endloop
  endfacet
  facet normal -0.580347 -0.814369 0
    outer loop
      vertex -8.57886 -5.16452 0
      vertex -8.57886 -5.16452 1
      vertex -8.62246 -5.13346 1
    endloop
  endfacet
  facet normal -0.442597 -0.896721 0
    outer loop
      vertex -8.49589 -5.20548 0
      vertex -8.57886 -5.16452 1
      vertex -8.57886 -5.16452 0
    endloop
  endfacet
  facet normal -0.442597 -0.896721 0
    outer loop
      vertex -8.49589 -5.20548 0
      vertex -8.49589 -5.20548 1
      vertex -8.57886 -5.16452 1
    endloop
  endfacet
  facet normal -0.32051 -0.947245 0
    outer loop
      vertex -8.3665 -5.24926 0
      vertex -8.49589 -5.20548 1
      vertex -8.49589 -5.20548 0
    endloop
  endfacet
  facet normal -0.32051 -0.947245 0
    outer loop
      vertex -8.3665 -5.24926 0
      vertex -8.3665 -5.24926 1
      vertex -8.49589 -5.20548 1
    endloop
  endfacet
  facet normal -0.175075 -0.984555 0
    outer loop
      vertex -8.23149 -5.27327 0
      vertex -8.3665 -5.24926 1
      vertex -8.3665 -5.24926 0
    endloop
  endfacet
  facet normal -0.175075 -0.984555 0
    outer loop
      vertex -8.23149 -5.27327 0
      vertex -8.23149 -5.27327 1
      vertex -8.3665 -5.24926 1
    endloop
  endfacet
  facet normal -0.0581141 -0.99831 0
    outer loop
      vertex -8.13445 -5.27892 0
      vertex -8.23149 -5.27327 1
      vertex -8.23149 -5.27327 0
    endloop
  endfacet
  facet normal -0.0581141 -0.99831 0
    outer loop
      vertex -8.13445 -5.27892 0
      vertex -8.13445 -5.27892 1
      vertex -8.23149 -5.27327 1
    endloop
  endfacet
  facet normal 0.0805325 -0.996752 0
    outer loop
      vertex -8.01209 -5.26903 0
      vertex -8.13445 -5.27892 1
      vertex -8.13445 -5.27892 0
    endloop
  endfacet
  facet normal 0.0805325 -0.996752 0
    outer loop
      vertex -8.01209 -5.26903 0
      vertex -8.01209 -5.26903 1
      vertex -8.13445 -5.27892 1
    endloop
  endfacet
  facet normal 0.187083 -0.982344 0
    outer loop
      vertex -7.93053 -5.2535 0
      vertex -8.01209 -5.26903 1
      vertex -8.01209 -5.26903 0
    endloop
  endfacet
  facet normal 0.187083 -0.982344 0
    outer loop
      vertex -7.93053 -5.2535 0
      vertex -7.93053 -5.2535 1
      vertex -8.01209 -5.26903 1
    endloop
  endfacet
  facet normal 0.345518 -0.938412 0
    outer loop
      vertex -7.88833 -5.23796 0
      vertex -7.93053 -5.2535 1
      vertex -7.93053 -5.2535 0
    endloop
  endfacet
  facet normal 0.345518 -0.938412 0
    outer loop
      vertex -7.88833 -5.23796 0
      vertex -7.88833 -5.23796 1
      vertex -7.93053 -5.2535 1
    endloop
  endfacet
  facet normal 0.41523 -0.909716 0
    outer loop
      vertex -7.84192 -5.21678 0
      vertex -7.88833 -5.23796 1
      vertex -7.88833 -5.23796 0
    endloop
  endfacet
  facet normal 0.41523 -0.909716 0
    outer loop
      vertex -7.84192 -5.21678 0
      vertex -7.84192 -5.21678 1
      vertex -7.88833 -5.23796 1
    endloop
  endfacet
  facet normal 0.467264 -0.884118 0
    outer loop
      vertex -7.78848 -5.18853 0
      vertex -7.84192 -5.21678 1
      vertex -7.84192 -5.21678 0
    endloop
  endfacet
  facet normal 0.467264 -0.884118 0
    outer loop
      vertex -7.78848 -5.18853 0
      vertex -7.78848 -5.18853 1
      vertex -7.84192 -5.21678 1
    endloop
  endfacet
  facet normal 0.533937 -0.845524 0
    outer loop
      vertex -7.65206 -5.10239 0
      vertex -7.78848 -5.18853 1
      vertex -7.78848 -5.18853 0
    endloop
  endfacet
  facet normal 0.533937 -0.845524 0
    outer loop
      vertex -7.65206 -5.10239 0
      vertex -7.65206 -5.10239 1
      vertex -7.78848 -5.18853 1
    endloop
  endfacet
  facet normal 0.581124 -0.813815 0
    outer loop
      vertex -7.4622 -4.96681 0
      vertex -7.65206 -5.10239 1
      vertex -7.65206 -5.10239 0
    endloop
  endfacet
  facet normal 0.581124 -0.813815 0
    outer loop
      vertex -7.4622 -4.96681 0
      vertex -7.4622 -4.96681 1
      vertex -7.65206 -5.10239 1
    endloop
  endfacet
  facet normal 0.604497 -0.796607 0
    outer loop
      vertex -4.25005 -2.5293 0
      vertex -7.4622 -4.96681 1
      vertex -7.4622 -4.96681 0
    endloop
  endfacet
  facet normal 0.604497 -0.796607 0
    outer loop
      vertex -4.25005 -2.5293 0
      vertex -4.25005 -2.5293 1
      vertex -7.4622 -4.96681 1
    endloop
  endfacet
  facet normal 0.372723 -0.927943 0
    outer loop
      vertex -4.23599 -2.52365 0
      vertex -4.25005 -2.5293 1
      vertex -4.25005 -2.5293 0
    endloop
  endfacet
  facet normal 0.372723 -0.927943 0
    outer loop
      vertex -4.23599 -2.52365 0
      vertex -4.23599 -2.52365 1
      vertex -4.25005 -2.5293 1
    endloop
  endfacet
  facet normal -0.0715424 -0.997438 0
    outer loop
      vertex -4.2163 -2.52507 0
      vertex -4.23599 -2.52365 1
      vertex -4.23599 -2.52365 0
    endloop
  endfacet
  facet normal -0.0715424 -0.997438 0
    outer loop
      vertex -4.2163 -2.52507 0
      vertex -4.2163 -2.52507 1
      vertex -4.23599 -2.52365 1
    endloop
  endfacet
  facet normal -0.448702 -0.893681 0
    outer loop
      vertex -4.18536 -2.5406 0
      vertex -4.2163 -2.52507 1
      vertex -4.2163 -2.52507 0
    endloop
  endfacet
  facet normal -0.448702 -0.893681 0
    outer loop
      vertex -4.18536 -2.5406 0
      vertex -4.18536 -2.5406 1
      vertex -4.2163 -2.52507 1
    endloop
  endfacet
  facet normal -0.593989 -0.804473 0
    outer loop
      vertex -4.13754 -2.57591 0
      vertex -4.18536 -2.5406 1
      vertex -4.18536 -2.5406 0
    endloop
  endfacet
  facet normal -0.593989 -0.804473 0
    outer loop
      vertex -4.13754 -2.57591 0
      vertex -4.13754 -2.57591 1
      vertex -4.18536 -2.5406 1
    endloop
  endfacet
  facet normal -0.637281 -0.770631 0
    outer loop
      vertex -4.06582 -2.63522 0
      vertex -4.13754 -2.57591 1
      vertex -4.13754 -2.57591 0
    endloop
  endfacet
  facet normal -0.637281 -0.770631 0
    outer loop
      vertex -4.06582 -2.63522 0
      vertex -4.06582 -2.63522 1
      vertex -4.13754 -2.57591 1
    endloop
  endfacet
  facet normal -0.671465 -0.741036 0
    outer loop
      vertex -3.64813 -3.0137 0
      vertex -4.06582 -2.63522 1
      vertex -4.06582 -2.63522 0
    endloop
  endfacet
  facet normal -0.671465 -0.741036 0
    outer loop
      vertex -3.64813 -3.0137 0
      vertex -3.64813 -3.0137 1
      vertex -4.06582 -2.63522 1
    endloop
  endfacet
  facet normal -0.675509 -0.737352 0
    outer loop
      vertex 3.61859 -9.67095 0
      vertex -3.64813 -3.0137 1
      vertex -3.64813 -3.0137 0
    endloop
  endfacet
  facet normal -0.675509 -0.737352 0
    outer loop
      vertex 3.61859 -9.67095 0
      vertex 3.61859 -9.67095 1
      vertex -3.64813 -3.0137 1
    endloop
  endfacet
  facet normal -0.628911 -0.777478 0
    outer loop
      vertex 3.82111 -9.83477 0
      vertex 3.61859 -9.67095 1
      vertex 3.61859 -9.67095 0
    endloop
  endfacet
  facet normal -0.628911 -0.777478 0
    outer loop
      vertex 3.82111 -9.83477 0
      vertex 3.82111 -9.83477 1
      vertex 3.61859 -9.67095 1
    endloop
  endfacet
  facet normal -0.517543 -0.855657 0
    outer loop
      vertex 4.0616 -9.98023 0
      vertex 3.82111 -9.83477 1
      vertex 3.82111 -9.83477 0
    endloop
  endfacet
  facet normal -0.517543 -0.855657 0
    outer loop
      vertex 4.0616 -9.98023 0
      vertex 4.0616 -9.98023 1
      vertex 3.82111 -9.83477 1
    endloop
  endfacet
  facet normal -0.314049 -0.949407 0
    outer loop
      vertex 4.30068 -10.0593 0
      vertex 4.0616 -9.98023 1
      vertex 4.0616 -9.98023 0
    endloop
  endfacet
  facet normal -0.314049 -0.949407 0
    outer loop
      vertex 4.30068 -10.0593 0
      vertex 4.30068 -10.0593 1
      vertex 4.0616 -9.98023 1
    endloop
  endfacet
  facet normal -0.121038 -0.992648 0
    outer loop
      vertex 4.49757 -10.0833 0
      vertex 4.30068 -10.0593 1
      vertex 4.30068 -10.0593 0
    endloop
  endfacet
  facet normal -0.121038 -0.992648 0
    outer loop
      vertex 4.49757 -10.0833 0
      vertex 4.49757 -10.0833 1
      vertex 4.30068 -10.0593 1
    endloop
  endfacet
  facet normal 0 -1 0
    outer loop
      vertex 4.58477 -10.0833 0
      vertex 4.49757 -10.0833 1
      vertex 4.49757 -10.0833 0
    endloop
  endfacet
  facet normal 0 -1 0
    outer loop
      vertex 4.58477 -10.0833 0
      vertex 4.58477 -10.0833 1
      vertex 4.49757 -10.0833 1
    endloop
  endfacet
  facet normal 0.0426915 -0.999088 0
    outer loop
      vertex 4.65087 -10.0805 0
      vertex 4.58477 -10.0833 1
      vertex 4.58477 -10.0833 0
    endloop
  endfacet
  facet normal 0.0426915 -0.999088 0
    outer loop
      vertex 4.65087 -10.0805 0
      vertex 4.65087 -10.0805 1
      vertex 4.58477 -10.0833 1
    endloop
  endfacet
  facet normal 0.606133 0.795363 -0
    outer loop
      vertex -0.881795 -0.200537 0
      vertex -0.881795 -0.200537 1
      vertex 4.91105 -4.61517 0
    endloop
  endfacet
  facet normal 0.606133 0.795363 0
    outer loop
      vertex 4.91105 -4.61517 1
      vertex 4.91105 -4.61517 0
      vertex -0.881795 -0.200537 1
    endloop
  endfacet
  facet normal 0.643291 0.765622 -0
    outer loop
      vertex -1.01962 -0.0847338 0
      vertex -1.01962 -0.0847338 1
      vertex -0.881795 -0.200537 0
    endloop
  endfacet
  facet normal 0.643291 0.765622 0
    outer loop
      vertex -0.881795 -0.200537 1
      vertex -0.881795 -0.200537 0
      vertex -1.01962 -0.0847338 1
    endloop
  endfacet
  facet normal 1 0 -0
    outer loop
      vertex -1.01962 -0.0748482 0
      vertex -1.01962 -0.0748482 1
      vertex -1.01962 -0.0847338 0
    endloop
  endfacet
  facet normal 1 -0 0
    outer loop
      vertex -1.01962 -0.0847338 1
      vertex -1.01962 -0.0847338 0
      vertex -1.01962 -0.0748482 1
    endloop
  endfacet
  facet normal 0.64459 -0.764529 0
    outer loop
      vertex -0.870544 0.0508403 0
      vertex -0.870544 0.0508403 1
      vertex -1.01962 -0.0748482 0
    endloop
  endfacet
  facet normal 0.64459 -0.764529 0
    outer loop
      vertex -1.01962 -0.0748482 1
      vertex -1.01962 -0.0748482 0
      vertex -0.870544 0.0508403 1
    endloop
  endfacet
  facet normal 0.606037 -0.795437 0
    outer loop
      vertex 4.84776 4.40757 0
      vertex 4.84776 4.40757 1
      vertex -0.870544 0.0508403 0
    endloop
  endfacet
  facet normal 0.606037 -0.795437 0
    outer loop
      vertex -0.870544 0.0508403 1
      vertex -0.870544 0.0508403 0
      vertex 4.84776 4.40757 1
    endloop
  endfacet
  facet normal 0.626278 -0.7796 0
    outer loop
      vertex 4.91105 4.45841 0
      vertex 4.91105 4.45841 1
      vertex 4.84776 4.40757 0
    endloop
  endfacet
  facet normal 0.626278 -0.7796 0
    outer loop
      vertex 4.84776 4.40757 1
      vertex 4.84776 4.40757 0
      vertex 4.91105 4.45841 1
    endloop
  endfacet
  facet normal -1 0 0
    outer loop
      vertex 4.91105 -4.61517 0
      vertex 4.91105 -4.61517 1
      vertex 4.91105 4.45841 0
    endloop
  endfacet
  facet normal -1 -0 -0
    outer loop
      vertex 4.91105 4.45841 1
      vertex 4.91105 4.45841 0
      vertex 4.91105 -4.61517 1
    endloop
  endfacet
endsolid OpenSCAD_Model
